<!-- Generator: Adobe Illustrator 19.2.1, SVG Export Plug-In  -->
<svg version="1.1"
	 xmlns="http://www.w3.org/2000/svg" xmlns:xlink="http://www.w3.org/1999/xlink" xmlns:a="http://ns.adobe.com/AdobeSVGViewerExtensions/3.0/"
	 x="0px" y="0px" width="42.6px" height="68px" viewBox="0 0 42.6 68" style="enable-background:new 0 0 42.6 68;"
	 xml:space="preserve">
<style type="text/css">
	.st0{fill:#EE2826;}
</style>
<defs>
</defs>
<path class="st0" d="M42.6,21.3c0-11.3-8.9-20.6-20-21.2c0,0-0.1,0-0.1,0c-0.4,0-0.8,0-1.2,0c-0.4,0-0.8,0-1.2,0c0,0,0,0-0.1,0
	C8.9,0.7,0,9.9,0,21.3c-0.1,3.8,0.9,7.1,2.2,9.7h0l0,0c0.7,1.4,1.5,2.5,2.2,3.5l3.7,5.9l0.4,0.7c0.5,0.8,0.9,1.6,1.4,2.4
	C13.2,49.2,16,55,18.4,61c0.3,0.8,0.6,1.6,0.9,2.4l1.6,4.4c0,0.1,0.2,0.2,0.3,0.2c0.1,0,0.3-0.1,0.3-0.2l1.6-4.4
	c0.3-0.8,0.6-1.6,0.9-2.4c2.4-6,5.2-11.8,8.5-17.5c0.4-0.7,0.8-1.3,1.2-2l4.6-7.4c0.5-0.7,1.1-1.6,1.7-2.6l0,0h0
	C41.4,29,42.7,25.4,42.6,21.3z M21.3,33.6C13.9,33.6,8,27.7,8,20.4C8,13,13.9,7.1,21.3,7.1c7.3,0,13.3,5.9,13.3,13.3
	C34.6,27.7,28.6,33.6,21.3,33.6z"/>
</svg>
